<svg width="307" height="309" viewBox="0 0 307 309" fill="none" xmlns="http://www.w3.org/2000/svg">
<path fill-rule="evenodd" clip-rule="evenodd" d="M306.453 158.901C306.453 158.854 306.453 158.807 306.453 158.76C306.453 158.605 306.452 158.448 306.452 158.292C306.431 148.013 306.148 144.002 304.872 135.839C301.948 117.146 297.141 102.745 287.838 84.8C282.821 75.1238 276.17 65.2891 268.459 56.1431C262.989 49.6563 252.308 39.2388 246.617 34.8397C232.077 23.6026 221.389 17.4425 205.254 10.9997C193.243 6.20374 178.909 2.82274 163.091 1.05429C160.175 0.728415 152.094 0.51326 145.818 0.51326C142.672 0.51326 139.98 0.567298 138.618 0.688522C123.589 2.02577 112.763 4.12009 101.509 7.86714C93.7375 10.4546 88.3534 12.7801 78.989 17.5936C66.3454 24.0928 55.968 31.4031 47.1096 40.0509C40.023 46.9691 36.631 50.6778 31.9061 56.6751C23.6616 67.14 19.3679 74.3114 13.2719 87.7985C9.21844 96.7668 5.91802 106.671 3.7705 116.312C-1.3005 139.077 -0.839769 164.306 5.07928 187.974C6.78894 194.811 10.7156 206.002 13.3321 211.494C13.5411 211.933 14.74 214.507 15.9964 217.213C21.1863 228.395 27.8537 239.357 34.4051 247.48C43.562 258.833 50.1764 265.551 60.3575 273.84C64.593 277.288 75.272 284.531 80.4941 287.497C95.8473 296.218 114.674 302.915 131.841 305.764C147.73 308.401 159.017 308.923 170.805 307.563C182.907 306.167 189.057 305.141 195.934 303.371C200.491 302.198 211.759 298.365 216.161 296.491C219.837 294.926 228.721 290.477 233.85 287.633C249.677 278.858 266.803 263.297 278.214 247.324C283.59 239.797 285.73 236.285 289.849 228.226C294.932 218.283 298.011 210.373 301.128 199.258C305.012 185.408 306.448 174.558 306.453 158.901Z" fill="black"/>
<circle cx="151.365" cy="154.739" r="6" fill="#F1CB5A"/>
<path d="M170.365 154.739C170.365 165.233 161.858 173.739 151.365 173.739C140.871 173.739 132.365 165.233 132.365 154.739C132.365 144.246 140.871 135.739 151.365 135.739C161.858 135.739 170.365 144.246 170.365 154.739ZM137.587 154.739C137.587 162.348 143.756 168.517 151.365 168.517C158.974 168.517 165.142 162.348 165.142 154.739C165.142 147.13 158.974 140.962 151.365 140.962C143.756 140.962 137.587 147.13 137.587 154.739Z" fill="#2B2B2B"/>
<path d="M183.365 154.739C183.365 172.412 169.038 186.739 151.365 186.739C133.692 186.739 119.365 172.412 119.365 154.739C119.365 137.066 133.692 122.739 151.365 122.739C169.038 122.739 183.365 137.066 183.365 154.739ZM125.159 154.739C125.159 169.212 136.892 180.945 151.365 180.945C165.838 180.945 177.57 169.212 177.57 154.739C177.57 140.266 165.838 128.534 151.365 128.534C136.892 128.534 125.159 140.266 125.159 154.739Z" fill="#2B2B2B"/>
<path d="M196.365 154.489C196.365 179.204 176.329 199.239 151.615 199.239C126.9 199.239 106.865 179.204 106.865 154.489C106.865 129.774 126.9 109.739 151.615 109.739C176.329 109.739 196.365 129.774 196.365 154.489ZM112.679 154.489C112.679 175.993 130.111 193.425 151.615 193.425C173.119 193.425 190.551 175.993 190.551 154.489C190.551 132.985 173.119 115.553 151.615 115.553C130.111 115.553 112.679 132.985 112.679 154.489Z" fill="#2B2B2B"/>
<path d="M229.791 106.199C239.236 117.42 244.415 131.617 244.415 146.284V183.13L249.755 191.068V216.831H244.134V230.769H237.072V216.831H231.009V196.831L227.697 193.519L224.384 196.831V216.831H218.134V230.769H210.947V216.831H204.884V193.519L211.197 183.13V144.019H211.202C211.201 138.542 209.827 133.086 206.785 128.533C203.742 123.978 199.416 120.428 194.355 118.332C189.295 116.236 183.726 115.688 178.354 116.756C177.665 116.893 176.985 117.056 176.312 117.243C174.027 115.762 171.599 114.484 169.052 113.434C171.614 112.199 174.334 111.285 177.154 110.724C183.719 109.418 190.524 110.088 196.709 112.65C202.894 115.212 208.18 119.55 211.899 125.116C215.618 130.682 217.698 137.36 217.698 144.054L217.697 144.054V183.13L211.259 193.519L210.947 211.706H218.134V196.831L224.384 186.581V144.833H224.375C224.375 135.744 221.451 126.895 216.036 119.594C210.621 112.293 203.001 106.928 194.302 104.291C185.603 101.653 176.286 101.884 167.728 104.948C164.008 106.28 160.517 108.117 157.345 110.389C155.594 110.181 153.813 110.074 152.007 110.074C150.556 110.074 149.121 110.143 147.706 110.277C152.743 105.278 158.841 101.411 165.596 98.992C175.432 95.4703 186.139 95.2054 196.137 98.2366C206.135 101.268 214.893 107.434 221.117 115.825C227.179 123.998 230.524 133.858 230.694 144.019H230.697V144.18C230.7 144.398 230.701 144.616 230.701 144.833H230.697V186.581L237.384 196.831L237.072 211.706H244.134V193.519L237.805 183.13V146.284C237.805 133.174 233.176 120.485 224.734 110.455C216.292 100.425 204.579 93.6979 191.662 91.4603C178.744 89.2227 165.451 91.6183 154.127 98.2245C147.884 101.867 142.46 106.661 138.111 112.298C134.054 113.64 130.223 115.552 126.729 117.966C132.124 107.404 140.456 98.5482 150.797 92.5153C163.466 85.1242 178.338 82.4441 192.79 84.9475C207.242 87.4509 220.346 94.977 229.791 106.199Z" fill="#292929"/>
<path d="M73.9841 203.046C64.5391 191.825 59.36 177.628 59.36 162.961V126.115L54.0205 118.177V92.4138H59.6409V78.4763H66.7034V92.4138H72.7659V112.414L76.0784 115.726L79.3909 112.414V92.4138H85.6409V78.4763H92.8284V92.4138H98.8909V115.726L92.5784 126.115V165.226H92.5732C92.5739 170.703 93.9479 176.159 96.9904 180.712C100.034 185.267 104.359 188.816 109.42 190.913C114.481 193.009 120.049 193.557 125.422 192.489C126.11 192.352 126.791 192.189 127.463 192.002C129.748 193.482 132.176 194.761 134.723 195.811C132.161 197.046 129.441 197.96 126.622 198.521C120.056 199.827 113.251 199.157 107.066 196.595C100.882 194.033 95.5955 189.695 91.8764 184.129C88.1573 178.563 86.0771 171.885 86.0771 165.191L86.0784 165.191V126.115L92.5159 115.726L92.8284 97.5388H85.6409V112.414L79.3909 122.664V164.412H79.4001C79.4001 173.501 82.3237 182.35 87.7391 189.651C93.1545 196.952 100.774 202.317 109.473 204.954C118.172 207.592 127.489 207.361 136.047 204.297C139.767 202.965 143.258 201.128 146.431 198.856C148.181 199.064 149.962 199.171 151.768 199.171C153.219 199.171 154.654 199.102 156.069 198.967C151.032 203.967 144.934 207.834 138.179 210.253C128.343 213.775 117.636 214.04 107.638 211.008C97.6401 207.977 88.8823 201.811 82.6582 193.42C76.5961 185.247 73.2508 175.387 73.0808 165.226H73.0784V165.065C73.0755 164.847 73.074 164.629 73.074 164.412H73.0784V122.664L66.3909 112.414L66.7034 97.5388H59.6409V115.726L65.9698 126.115V162.961C65.9698 176.071 70.599 188.76 79.041 198.79C87.4831 208.82 99.1958 215.547 112.113 217.785C125.031 220.022 138.324 217.627 149.648 211.02C155.891 207.378 161.315 202.584 165.665 196.947C169.722 195.604 173.552 193.693 177.046 191.279C171.651 201.841 163.32 210.697 152.978 216.73C140.309 224.121 125.437 226.801 110.985 224.298C96.5331 221.794 83.429 214.268 73.9841 203.046Z" fill="#292929"/>
<path d="M240.491 237.275L240.491 255.802M249.755 246.539L231.227 246.539" stroke="#292929" stroke-width="5.5" stroke-linecap="round"/>
<path d="M220.897 247.092H206.902" stroke="#292929" stroke-width="5.5" stroke-linecap="round"/>
<path d="M63.2843 53.0251L63.2843 71.5525M72.548 62.2888L54.0206 62.2888" stroke="#292929" stroke-width="5.5" stroke-linecap="round"/>
<path d="M96.5436 62.2888H82.548" stroke="#292929" stroke-width="5.5" stroke-linecap="round"/>
<path d="M122.205 32.1302L120.724 21.3222L124.988 20.7378C125.808 20.6254 126.527 20.6863 127.147 20.9203C127.767 21.1508 128.266 21.5215 128.644 22.0324C129.025 22.5393 129.265 23.1516 129.363 23.8694C129.462 24.5871 129.394 25.2416 129.159 25.8329C128.925 26.4241 128.535 26.9131 127.989 27.2997C127.447 27.6858 126.761 27.9358 125.931 28.0496L123.213 28.4221L122.962 26.5908L125.31 26.269C125.75 26.2087 126.102 26.0834 126.366 25.8931C126.634 25.6987 126.819 25.4564 126.923 25.1663C127.029 24.8721 127.058 24.5473 127.01 24.1919C126.961 23.8331 126.845 23.5298 126.665 23.2822C126.487 23.0306 126.243 22.8507 125.935 22.7425C125.625 22.6307 125.249 22.6052 124.806 22.666L123.265 22.8772L124.49 31.817L122.205 32.1302Z" fill="#FFE8A3"/>
<path d="M144.357 29.5641L143.988 18.6613L148.29 18.5156C149.113 18.4877 149.821 18.6112 150.413 18.886C151.008 19.1572 151.468 19.5556 151.791 20.0812C152.118 20.6031 152.293 21.2243 152.318 21.9447C152.342 22.6688 152.207 23.2969 151.913 23.8292C151.618 24.358 151.179 24.7708 150.595 25.0677C150.016 25.3645 149.307 25.5271 148.469 25.5554L145.589 25.653L145.527 23.8003L148.034 23.7154C148.474 23.7005 148.838 23.6278 149.125 23.4973C149.411 23.3667 149.622 23.1784 149.756 22.9323C149.893 22.686 149.956 22.3836 149.943 22.0252C149.931 21.6632 149.848 21.3604 149.694 21.1169C149.544 20.8733 149.319 20.6925 149.02 20.5748C148.725 20.4533 148.355 20.4001 147.912 20.4151L146.357 20.4678L146.663 29.486L144.357 29.5641ZM150.077 24.403L152.955 29.2729L150.41 29.3591L147.591 24.4872L150.077 24.403Z" fill="#FFE8A3"/>
<path d="M177.889 25.7721C177.977 26.9585 177.827 27.9845 177.439 28.8502C177.055 29.7157 176.493 30.3967 175.754 30.8933C175.018 31.3861 174.17 31.6682 173.21 31.7397C172.244 31.8116 171.36 31.6567 170.558 31.2748C169.757 30.8928 169.103 30.3024 168.594 29.5034C168.086 28.7044 167.788 27.7135 167.7 26.5307C167.612 25.3444 167.76 24.3185 168.144 23.453C168.528 22.5876 169.088 21.9085 169.824 21.4157C170.56 20.9193 171.411 20.6352 172.378 20.5632C173.338 20.4917 174.218 20.647 175.02 21.0289C175.824 21.407 176.48 21.9955 176.988 22.7945C177.5 23.5933 177.8 24.5858 177.889 25.7721ZM175.557 25.9458C175.499 25.1773 175.336 24.5378 175.067 24.0273C174.801 23.5165 174.45 23.1402 174.016 22.8984C173.581 22.6565 173.086 22.5563 172.53 22.5977C171.974 22.6391 171.499 22.8116 171.105 23.1151C170.711 23.4186 170.418 23.8428 170.227 24.3876C170.04 24.9321 169.975 25.5886 170.032 26.3571C170.089 27.1256 170.251 27.7652 170.517 28.276C170.786 28.7865 171.138 29.1627 171.573 29.4045C172.008 29.6463 172.503 29.7466 173.059 29.7052C173.615 29.6638 174.09 29.4913 174.484 29.1878C174.878 28.8842 175.169 28.4602 175.356 27.9157C175.547 27.3709 175.614 26.7142 175.557 25.9458Z" fill="#FFE8A3"/>
<path d="M196.659 27.2455L199.34 28.1969L199.719 36.1092L199.84 36.1519L205.123 30.2495L207.803 31.2009L204.154 41.4816L202.046 40.7333L204.421 34.0418L204.336 34.0115L199.318 39.7085L197.882 39.1989L197.588 31.5882L197.502 31.5579L195.118 38.2745L193.01 37.5262L196.659 27.2455Z" fill="#FFE8A3"/>
<path d="M217.132 50.4193C216.954 50.116 216.909 49.7927 216.996 49.4495C217.088 49.1076 217.285 48.8478 217.589 48.6701C217.889 48.4942 218.209 48.4506 218.549 48.5395C218.891 48.6314 219.151 48.829 219.329 49.1324C219.501 49.4265 219.545 49.7467 219.459 50.093C219.374 50.4393 219.181 50.7003 218.881 50.8762C218.679 50.9947 218.463 51.0512 218.233 51.0457C218.009 51.0416 217.797 50.9863 217.599 50.8801C217.404 50.7721 217.249 50.6185 217.132 50.4193Z" fill="#FFE8A3"/>
<path d="M230.18 61.2731L237.015 52.7701L242.744 57.3752L241.553 58.8574L237.621 55.6972L235.993 57.7233L239.63 60.6466L238.438 62.1288L234.801 59.2055L233.17 61.2358L237.118 64.4093L235.927 65.8915L230.18 61.2731Z" fill="#FFE8A3"/>
<path d="M257.011 94.0126L266.669 88.9406L270.087 95.4487L268.403 96.3328L266.058 91.8668L263.757 93.0753L265.926 97.2065L264.243 98.0906L262.073 93.9594L259.767 95.1705L262.122 99.6554L260.439 100.539L257.011 94.0126Z" fill="#FFE8A3"/>
<path d="M275.978 122.187L274.894 120.121C275.141 119.943 275.338 119.742 275.484 119.516C275.634 119.289 275.735 119.046 275.787 118.786C275.839 118.526 275.841 118.256 275.794 117.976C275.749 117.699 275.654 117.422 275.509 117.145C275.246 116.645 274.893 116.275 274.45 116.034C274.01 115.792 273.501 115.693 272.922 115.736C272.346 115.778 271.723 115.974 271.053 116.326C270.365 116.688 269.84 117.094 269.479 117.544C269.119 117.997 268.918 118.472 268.874 118.969C268.829 119.465 268.935 119.957 269.191 120.445C269.335 120.718 269.504 120.952 269.698 121.147C269.895 121.345 270.11 121.498 270.344 121.608C270.581 121.716 270.832 121.777 271.096 121.791C271.361 121.808 271.635 121.772 271.918 121.684L272.993 123.755C272.522 123.934 272.024 124.025 271.5 124.027C270.981 124.031 270.465 123.939 269.953 123.751C269.446 123.564 268.968 123.273 268.52 122.879C268.077 122.486 267.693 121.979 267.368 121.36C266.915 120.499 266.706 119.626 266.739 118.742C266.774 117.861 267.057 117.031 267.59 116.25C268.124 115.472 268.916 114.807 269.966 114.256C271.02 113.703 272.02 113.43 272.966 113.438C273.913 113.446 274.758 113.689 275.502 114.165C276.248 114.639 276.844 115.301 277.29 116.149C277.584 116.709 277.778 117.269 277.872 117.83C277.967 118.393 277.961 118.94 277.854 119.469C277.75 119.997 277.543 120.491 277.231 120.952C276.921 121.415 276.503 121.827 275.978 122.187Z" fill="#FFE8A3"/>
<path d="M245.696 77.119L254.257 70.3573L255.687 72.1673L248.618 77.7503L251.517 81.4204L250.025 82.5991L245.696 77.119Z" fill="#FFE8A3"/>
<path fill-rule="evenodd" clip-rule="evenodd" d="M191.548 157.997H210.562L212.225 163.258C214.642 170.901 214.304 171.646 210.452 167.16C206.227 162.24 201.508 160.271 193.13 159.935C180.545 159.429 181.623 158.563 180.822 169.821C180.437 175.239 180.422 181.036 180.789 182.7C181.388 185.421 181.621 185.583 183.092 184.298C185.995 181.76 188.997 181.497 195.213 183.236C199.952 184.561 201.929 184.702 204.135 183.872C207.37 182.655 207.719 183.533 205.405 187.054C202.913 190.845 198.542 191.775 191.635 189.981C184.726 188.187 181.51 188.714 180.747 191.765C180.444 192.976 180.326 198.402 180.485 203.822L180.774 213.677L190.383 213.491C201.659 213.271 205.342 211.888 211.812 205.447C215.382 201.892 216.041 201.536 215.495 203.456C215.129 204.741 214.324 207.881 213.705 210.433C213.06 213.09 211.95 215.196 211.106 215.36C210.295 215.519 200.109 215.52 188.468 215.364C168.039 215.09 167.379 215.019 169.466 213.335C171.556 211.647 171.639 210.84 171.984 188.666C172.268 170.374 172.054 165.06 170.924 162.363C170.145 160.503 168.929 158.976 168.221 158.968C167.296 158.957 167.351 158.683 168.418 157.992C169.233 157.464 170.493 157.249 171.217 157.516C171.941 157.781 181.09 157.997 191.548 157.997Z" fill="#F1CB5A"/>
<path fill-rule="evenodd" clip-rule="evenodd" d="M137.434 99.8792C145.342 104.156 145.849 113.244 138.558 120.031C137.274 121.228 131.337 124.481 125.367 127.261C119.397 130.042 113.067 133.409 111.299 134.744C108.185 137.1 108.087 137.395 108.087 144.45C108.087 152.217 108.914 155.497 111.535 158.108C113.057 159.626 112.54 159.739 104.094 159.739H95.017L97.3508 157.857C99.6649 155.99 99.6876 155.779 100.004 132.974C100.362 107.222 99.9308 102.334 97.0513 99.4634L95.0545 97.4727L114.668 97.8235C130.926 98.1142 134.822 98.4661 137.434 99.8792ZM108.087 117.364C108.087 127.12 108.477 135.102 108.955 135.102C109.431 135.102 110.39 134.42 111.084 133.586C111.778 132.752 115.981 129.683 120.424 126.766C130.08 120.427 134.268 115.938 135.213 110.915C135.758 108.02 135.492 106.625 134.014 104.641C130.954 100.53 128.105 99.6555 117.725 99.6398L108.087 99.625V117.364Z" fill="#F1CB5A"/>
<path fill-rule="evenodd" clip-rule="evenodd" d="M138.793 1.02637C123.764 2.36361 112.938 4.45792 101.684 8.20497C93.9122 10.7925 88.5281 13.118 79.1637 17.9315C66.5201 24.4307 56.1427 31.7409 47.2842 40.3887C40.1976 47.3069 36.8057 51.0157 32.0808 57.0129C23.8363 67.4778 19.5426 74.6493 13.4466 88.1363C9.39311 97.1047 6.0927 107.009 3.94518 116.649C-1.12582 139.415 -0.665086 164.644 5.25396 188.312C6.96362 195.149 10.8902 206.339 13.5067 211.832C13.7158 212.271 14.9147 214.845 16.1711 217.551C21.361 228.733 28.0284 239.694 34.5797 247.817C43.7367 259.171 50.3511 265.889 60.5322 274.178C64.7676 277.626 75.4467 284.869 80.6688 287.835C96.022 296.556 114.848 303.253 132.016 306.102C147.905 308.739 159.191 309.26 170.98 307.901C183.082 306.505 189.232 305.479 196.108 303.709C200.666 302.536 211.933 298.703 216.335 296.829C220.012 295.264 228.896 290.815 234.025 287.971C249.852 279.196 266.978 263.635 278.388 247.662C283.765 240.135 285.904 236.623 290.024 228.563C295.106 218.621 298.186 210.711 301.303 199.596C305.237 185.567 306.66 174.616 306.627 158.63C306.605 148.351 306.323 144.34 305.046 136.177C302.122 117.484 297.316 103.083 288.012 85.1379C282.995 75.4617 276.345 65.6269 268.633 56.4809C263.164 49.9942 252.483 39.5766 246.791 35.1776C232.252 23.9404 221.564 17.7804 205.429 11.3375C193.417 6.5416 179.084 3.16058 163.266 1.39213C158.888 0.902934 142.872 0.663263 138.793 1.02637ZM160.34 2.2064C173.396 3.32684 186.337 5.96542 197.524 9.78828C205.953 12.6689 216.627 17.3244 223.279 21.0212C227.503 23.369 234.609 27.7436 236.951 29.4373C242.835 33.6937 249.054 38.441 251.05 40.2001C257.806 46.1553 268.785 57.6926 272.491 62.7322C273.79 64.498 277.656 69.9893 279.492 72.6749C280.504 74.1561 281.402 75.4276 281.487 75.5008C281.762 75.7372 284.311 80.0682 286.143 83.412C296.857 102.968 303.481 125.251 305.221 147.59C305.411 150.027 305.553 155.766 305.54 160.492C305.506 172.84 304.576 181.551 302.108 192.63C300.038 201.922 296.633 212.677 293.782 218.933C293.469 219.62 293.213 220.26 293.213 220.354C293.213 220.941 285.831 235.08 283.953 238.088C279.911 244.566 273.703 252.923 268.777 258.517C263.737 264.242 254.931 272.433 249.504 276.444C239.027 284.188 228.057 289.677 217.041 292.686C212.669 293.881 210.349 294.313 206.227 294.703C204.398 294.875 202.842 295.027 202.769 295.041C202.695 295.054 200.84 294.975 198.645 294.864C190.201 294.439 183.024 292.621 174.505 288.747C173.664 288.364 172.975 288.098 172.975 288.155C172.975 288.317 174.708 289.298 175.363 289.505C175.688 289.609 176.181 289.921 176.46 290.199C176.738 290.477 177.158 290.705 177.393 290.705C177.664 290.705 177.764 290.851 177.667 291.104C177.583 291.323 177.615 291.503 177.738 291.503C177.862 291.503 177.963 291.805 177.963 292.174C177.963 292.76 177.857 292.838 177.132 292.791C176.345 292.74 175.103 293.2 175.103 293.541C175.103 293.628 176.049 293.617 177.206 293.516C178.592 293.395 179.368 293.429 179.483 293.615C179.58 293.773 179.446 293.901 179.176 293.906C178.911 293.912 178.335 294.223 177.896 294.599L177.098 295.281L177.939 295.132C178.553 295.024 178.822 295.095 178.939 295.4C179.073 295.75 179.48 295.793 181.506 295.672C183.217 295.57 183.886 295.614 183.815 295.825C183.666 296.273 180.921 296.835 173.773 297.883C169.333 298.533 167.251 298.967 163.532 300.015C157.909 301.6 154.462 301.933 150.896 301.237C140.243 299.156 133.621 297.268 113.787 290.653C107.204 288.458 100.739 286.243 99.4227 285.732C98.1059 285.221 96.2505 284.509 95.2995 284.15C93.1434 283.336 92.68 283.148 87.5021 280.993C83.0815 279.152 78.5923 277.005 73.4864 274.287C68.1305 271.437 66.9433 270.74 62.3847 267.776C60.7412 266.707 58.8259 265.477 58.1285 265.042C57.4312 264.608 56.6534 263.993 56.4002 263.677C56.1469 263.36 55.4886 262.918 54.9371 262.695C53.9204 262.283 51.9854 260.51 52.2568 260.239C52.3382 260.158 52.7489 260.378 53.1695 260.728C53.5903 261.078 55.0113 262.064 56.3273 262.919C58.5206 264.343 60.5056 265.52 67.6342 269.622C71.398 271.788 78.2138 275.054 82.6923 276.837C91.172 280.213 101.785 284.104 107.854 286.061C114.439 288.185 128.349 292.838 132.408 294.275C140.223 297.041 150.249 299.711 153.715 299.95C156.696 300.155 162.213 298.843 165.394 297.172C166.639 296.518 170.069 293.822 172.177 291.841L173.108 290.966L171.911 291.538C171.253 291.852 170.115 292.646 169.384 293.303C167.872 294.66 164.845 296.71 163.266 297.445C161.458 298.287 157.782 299.206 155.551 299.374C153.385 299.537 151.81 299.276 146.773 297.916C145.749 297.64 143.714 297.098 142.251 296.712C139.535 295.995 132.179 293.568 122.433 290.172C119.433 289.127 116.022 287.967 114.851 287.595C108.828 285.677 100.262 282.684 93.3044 280.066C92.5728 279.79 91.1364 279.271 90.1122 278.912C82.8155 276.35 73.0943 271.71 63.378 266.15C60.8176 264.685 58.1242 263.021 57.3927 262.453C56.6612 261.884 55.4718 261.029 54.7501 260.552C53.2876 259.587 52.9404 259.049 53.7794 259.049C54.0843 259.049 54.3335 259.164 54.3335 259.304C54.3335 259.444 54.9023 259.886 55.5971 260.285C56.2919 260.685 57.519 261.45 58.3237 261.986C62.8313 264.986 76.1928 271.487 82.2648 273.635C83.5085 274.076 85.6632 274.876 87.0531 275.415C88.443 275.953 96.8224 278.823 105.674 281.792C124.155 287.99 126.562 288.837 133.472 291.57C138.965 293.743 146.097 296.133 150.418 297.249C152.614 297.816 153.516 297.925 155.016 297.804C158.231 297.546 162.663 295.763 165.552 293.566C168.166 291.577 169.691 290.177 169.063 290.341C168.746 290.424 168.03 290.881 167.472 291.356C166.178 292.458 162.644 294.65 160.697 295.559C158.02 296.807 155.603 297.412 153.765 297.294C151.096 297.122 140.302 293.666 131.078 290.031C126.701 288.306 124.773 287.591 118.576 285.393C116.966 284.823 114.093 283.802 112.191 283.126C110.289 282.449 107.656 281.552 106.339 281.131C101.003 279.426 90.0199 275.736 88.4576 275.123C87.5407 274.764 86.0414 274.189 85.1261 273.845C77.6267 271.03 73.4159 269.102 62.8459 263.641C59.9554 262.148 56.8122 260.153 54.8344 258.557C54.0917 257.957 53.2695 257.932 53.2695 258.509C53.2695 258.66 53.0899 258.783 52.8705 258.783C52.3597 258.783 52.3605 258.4 52.8726 257.888C53.0931 257.668 53.1631 257.419 53.0282 257.336C52.8933 257.252 52.7199 257.334 52.6425 257.518C52.5438 257.754 52.4097 257.705 52.1884 257.352C52.016 257.078 50.744 255.641 49.3623 254.16C47.9804 252.68 46.3196 250.69 45.6719 249.739C45.0244 248.788 44.1229 247.561 43.6688 247.012C43.2147 246.464 42.9376 246.015 43.0527 246.015C43.3877 246.015 45.7541 248.636 47.3693 250.796C48.8505 252.776 51.5202 255.591 51.9176 255.591C52.0325 255.591 52.4941 255.92 52.9434 256.323C54.2952 257.534 54.5301 257.699 56.1251 258.569C56.9686 259.028 58.1125 259.688 58.6671 260.035C60.1957 260.991 70.9524 266.36 73.2204 267.299C77.0324 268.878 86.7831 272.182 105.807 278.34C118.482 282.442 123.856 284.42 133.605 288.569C141.207 291.804 145.542 293.408 152.464 295.547C154.419 296.151 158.47 295.03 161.91 292.934C164.895 291.115 168.607 288.045 167.822 288.045C167.768 288.045 166.681 288.821 165.408 289.77C161.375 292.777 156.312 295.208 154.054 295.221C153.524 295.225 151.549 294.682 149.665 294.015C147.782 293.349 145.762 292.644 145.177 292.449C142.889 291.687 134.938 288.58 132.541 287.511C129.069 285.963 123.419 283.679 119.907 282.405C118.297 281.821 116.321 281.101 115.516 280.805C113.383 280.02 102.948 276.523 100.62 275.813C96.0789 274.428 81.3093 269.374 77.4766 267.894C68.1234 264.281 59.4686 259.918 54.3585 256.24C53.8603 255.882 52.8335 254.96 52.077 254.193C51.3204 253.426 50.4713 252.664 50.1898 252.499C49.7169 252.224 49.7485 252.169 50.6094 251.769C51.1214 251.532 52.3783 250.73 53.4025 249.988C54.4266 249.246 55.6237 248.466 56.0626 248.254C56.5015 248.042 57.0519 247.733 57.2858 247.567C57.6177 247.331 58.7238 247.54 62.34 248.518C68.3516 250.145 72.9805 251.094 80.6688 252.274C111.288 256.974 122.215 260.853 137.595 272.483C140.001 274.302 146.093 278.442 148.369 279.804C148.954 280.154 149.473 280.535 149.522 280.651C149.571 280.767 149.712 280.862 149.837 280.862C150.138 280.862 152.867 282.537 152.98 282.791C153.029 282.9 153.316 282.99 153.618 282.99C154.036 282.99 153.886 282.799 152.998 282.197C152.354 281.761 151.683 281.402 151.508 281.399C151.332 281.396 151.093 281.234 150.976 281.038C150.859 280.842 150.165 280.337 149.433 279.916C148.701 279.495 147.96 279.027 147.786 278.876C147.612 278.725 147.073 278.324 146.589 277.985C146.105 277.647 144.751 276.698 143.581 275.878C142.41 275.058 140.542 273.769 139.429 273.014C138.316 272.259 136.7 271.101 135.838 270.44C134.976 269.78 134 269.097 133.67 268.922C133.341 268.748 131.908 267.763 130.487 266.734C127.23 264.375 125.587 263.458 120.956 261.417C111.081 257.063 103.693 255.185 83.8609 251.985C70.4246 249.818 65.8944 248.948 64.0978 248.193C63.6889 248.021 63.0305 247.808 62.6347 247.718C62.2389 247.628 61.1541 247.328 60.2244 247.051C58.2312 246.456 57.9441 246.439 57.4781 246.879C57.2849 247.062 56.6811 247.368 56.1368 247.559C54.9515 247.974 53.469 248.826 51.1579 250.42C50.2157 251.069 49.3479 251.601 49.2293 251.601C48.2014 251.601 51.0142 248.902 53.7127 247.299C57.5903 244.995 57.4382 245.017 61.9753 246.112C66.8598 247.29 70.5893 248.037 73.3534 248.388C93.3576 250.933 99.3939 251.904 108.068 253.967C114.442 255.484 123.46 259.376 128.684 262.866C130.533 264.101 138.053 269.691 142.118 272.852C143.654 274.046 145.735 275.589 146.743 276.28C147.751 276.972 149.012 277.836 149.546 278.202C150.08 278.568 150.858 279.137 151.275 279.466C151.691 279.795 152.225 280.06 152.462 280.055C152.998 280.043 152.055 279.239 149.3 277.359C147.12 275.872 142.097 272.118 138.882 269.574C137.761 268.687 136.145 267.443 135.291 266.81C134.437 266.176 132.553 264.78 131.103 263.706C126.946 260.625 118.123 256.253 112.411 254.445C107.849 253 96.824 250.691 91.1763 249.998C90.0058 249.854 88.3898 249.624 87.5851 249.486C86.7804 249.348 83.5484 248.929 80.4028 248.555C70.5361 247.381 67.8667 246.942 64.575 245.949C59.927 244.548 58.6735 244.389 56.9099 244.981C55.3542 245.503 50.5562 248.075 50.384 248.479C50.2008 248.91 48.6063 250.268 48.2818 250.27C47.7098 250.272 47.9184 249.741 48.6143 249.424C48.98 249.258 49.2793 249.034 49.2793 248.926C49.2793 248.473 48.5017 248.491 47.7878 248.962C47.3645 249.241 46.9397 249.47 46.8437 249.471C46.5577 249.474 46.9128 248.451 47.3129 248.119C47.5167 247.95 47.6832 247.59 47.6832 247.32C47.6832 246.241 54.0992 241.671 56.6792 240.912C57.2166 240.754 58.922 240.995 66.4371 242.289C67.3149 242.441 70.3674 242.685 73.2204 242.833C76.0734 242.98 79.1858 243.211 80.1367 243.346C81.0877 243.48 83.6016 243.664 85.723 243.753C92.1246 244.023 100.281 245.091 107.233 246.571C112.589 247.712 117.825 249.617 122.689 252.197C128.491 255.274 130.958 257.067 137.394 262.89C139.991 265.24 142.788 267.701 143.608 268.36C144.428 269.018 146.134 270.427 147.399 271.492C152.743 275.988 157.592 279.798 157.97 279.798C158.209 279.798 158.298 279.925 158.186 280.105C158.064 280.303 158.114 280.34 158.326 280.208C158.56 280.064 158.41 279.801 157.809 279.303C157.344 278.917 156.297 278.032 155.484 277.338C154.671 276.643 153.91 276.074 153.793 276.074C153.676 276.074 153.303 275.805 152.963 275.475C151.326 273.888 147.959 270.987 145.251 268.833C143.601 267.52 141.347 265.59 140.242 264.543C132.903 257.59 127.726 253.807 121.236 250.656C115.781 248.008 110.293 246.251 104.344 245.249C96.4502 243.919 91.8581 243.38 85.989 243.093C83.2823 242.96 79.6313 242.735 77.8756 242.591C76.12 242.448 73.3069 242.263 71.6243 242.18C69.9418 242.097 67.2484 241.794 65.6391 241.506C64.0297 241.218 61.6047 240.783 60.2502 240.538C57.8103 240.096 57.7704 240.098 55.994 240.695C53.7284 241.457 51.7101 242.527 49.8347 243.961C48.2671 245.159 46.7799 246.704 46.7304 247.185C46.6612 247.857 46.6003 247.896 46.2151 247.511C45.8539 247.149 45.9595 246.889 47.2126 245.049C49.0641 242.33 51.9392 240.305 54.6751 239.792C55.2188 239.69 55.6636 239.492 55.6636 239.352C55.6636 238.638 52.4935 239.551 50.5703 240.819C49.1301 241.769 46.0871 244.661 46.0871 245.079C46.0871 245.25 45.7879 245.671 45.4221 246.015C45.0564 246.358 44.7571 246.499 44.7571 246.327C44.7571 246.155 44.8768 246.015 45.0231 246.015C45.1694 246.015 45.2891 245.757 45.2891 245.441C45.2891 244.903 45.2599 244.895 44.802 245.309C44.5342 245.552 44.2418 245.677 44.1527 245.588C44.0636 245.498 45.2104 244.171 46.7014 242.637C48.5635 240.722 49.9954 239.516 51.2744 238.786C52.8779 237.871 53.0072 237.746 52.2054 237.886C51.0366 238.089 49.0393 239.405 47.1834 241.195C45.4625 242.854 44.7571 243.291 44.7571 242.699C44.7571 242.474 44.5903 242.29 44.3865 242.29C43.9067 242.29 43.626 243.015 44.0405 243.183C44.2152 243.254 44.029 243.322 43.6265 243.334C42.7045 243.36 42.6194 242.538 43.4845 241.964L44.074 241.573L43.3515 240.714C42.954 240.242 42.629 239.774 42.629 239.675C42.629 239.576 42.1342 238.957 41.5298 238.299C40.9252 237.641 40.0274 236.665 39.5347 236.129C39.0418 235.594 38.6388 235.039 38.6388 234.897C38.6388 234.755 38.3994 234.576 38.1068 234.499C37.8142 234.423 37.5748 234.229 37.5748 234.069C37.5748 233.312 38.5412 234 40.9957 236.505C43.721 239.286 45.0231 240.945 45.0231 241.637C45.0231 241.85 45.205 242.024 45.4272 242.024C45.9369 242.024 45.7046 240.886 44.9843 239.855C44.7129 239.467 44.4911 239.019 44.4911 238.86C44.4911 238.701 44.2517 238.421 43.959 238.239C43.6664 238.056 43.427 237.774 43.427 237.612C43.427 237.45 43.1733 237.03 42.8628 236.678C42.5527 236.327 41.8506 235.441 41.3026 234.709C40.7549 233.978 39.8718 232.907 39.3397 232.33C38.3879 231.296 38.0006 230.478 38.7628 231.111C39.6199 231.822 39.7584 231.191 38.9397 230.306C37.6686 228.931 37.4801 228.7 36.5128 227.327C36.0231 226.632 35.5371 226.064 35.4326 226.064C35.0979 226.064 34.9505 224.61 35.2655 224.415C35.4764 224.285 35.4248 224.083 35.0952 223.749C34.4531 223.099 27.6211 214.263 26.149 212.179C18.8062 201.784 12.9635 190.131 8.83635 177.649C6.25177 169.833 4.17635 159.738 3.26632 150.555C2.91412 147.001 2.91491 136.743 3.2679 132.148C4.33887 118.21 7.83721 103.773 13.2721 90.8638C15.2611 86.1399 19.6266 77.1793 21.481 74.0145C29.418 60.47 41.1896 46.6669 53.6685 36.2727C54.839 35.2978 56.3353 34.0494 56.9937 33.4987C61.9458 29.3553 71.2243 23.1903 78.264 19.3658C91.7187 12.056 106.018 6.9885 121.073 4.19537C125.083 3.45133 133.387 2.41682 137.994 2.08723C140.189 1.93028 142.464 1.75631 143.049 1.70098C145.18 1.49934 155.672 1.80605 160.34 2.2064ZM43.693 232.283C43.693 232.338 43.9026 232.547 44.1586 232.748C44.5804 233.079 44.5898 233.069 44.2591 232.648C43.9114 232.204 43.693 232.064 43.693 232.283ZM37.2478 233.396C37.1587 233.485 36.9424 233.278 36.7671 232.936C36.4626 232.342 36.4697 232.335 36.9294 232.774C37.1938 233.027 37.3372 233.306 37.2478 233.396ZM40.6339 232.714C40.7243 232.86 40.918 232.98 41.0643 232.98C41.2106 232.98 41.2564 232.86 41.1659 232.714C41.0755 232.568 40.8818 232.448 40.7355 232.448C40.5892 232.448 40.5435 232.568 40.6339 232.714ZM46.6381 234.417C49.3583 236.266 55.1334 238.155 60.9839 239.11C66.2033 239.963 77.5117 240.703 84.792 240.668C94.7134 240.621 104.012 241.846 112.59 244.332C117.33 245.705 122.93 248.354 127.62 251.442C131.76 254.168 133.817 255.935 141.914 263.723C143.777 265.515 145.991 267.558 146.835 268.264C147.679 268.97 149.865 270.873 151.694 272.493C153.523 274.113 155.868 276.15 156.905 277.02C157.942 277.89 159.884 279.559 161.22 280.729C164.449 283.557 165.411 284.32 165.748 284.32C165.902 284.32 166.459 284.575 166.986 284.885C168.79 285.95 168.231 285.166 166.28 283.895C163.801 282.281 161.28 280.354 159.388 278.626C158.572 277.881 156.615 276.196 155.038 274.882C153.46 273.568 151.912 272.192 151.596 271.823C151.28 271.454 150.006 270.255 148.765 269.158C147.523 268.06 143.999 264.72 140.933 261.735C135.082 256.037 131.601 253.089 127.62 250.461C125.038 248.757 119.614 246.044 116.175 244.738C108.659 241.881 92.564 239.531 83.9939 240.038C82.0919 240.15 80.2963 240.239 80.0037 240.236C78.3326 240.215 65.8407 239.333 65.5125 239.212C65.2967 239.134 63.6807 238.891 61.9213 238.673C60.1621 238.455 57.7651 238.036 56.5947 237.742C53.602 236.989 48.6491 235.229 47.3058 234.442C45.8608 233.595 45.4035 233.578 46.6381 234.417ZM49.0133 237.252C49.0133 237.407 49.133 237.46 49.2793 237.369C49.4256 237.279 49.5453 237.152 49.5453 237.088C49.5453 237.023 49.4256 236.97 49.2793 236.97C49.133 236.97 49.0133 237.097 49.0133 237.252ZM48.0822 238.034C47.9918 238.181 48.1046 238.3 48.3326 238.3C48.5605 238.3 48.7473 238.181 48.7473 238.034C48.7473 237.888 48.6348 237.768 48.497 237.768C48.3592 237.768 48.1727 237.888 48.0822 238.034ZM46.8852 239.253C46.8852 239.723 47.4579 239.642 47.6223 239.148C47.6803 238.974 47.538 238.832 47.3063 238.832C47.0746 238.832 46.8852 239.022 46.8852 239.253ZM55.4854 242.946C53.5233 243.838 48.8587 246.936 48.6473 247.488C48.398 248.137 48.6411 248.284 49.2426 247.847C51.6447 246.104 54.7802 244.075 55.7187 243.656C57.456 242.88 57.6744 242.839 58.6323 243.1C62.8244 244.247 70.5566 245.466 77.0776 246.008C78.9796 246.166 81.4336 246.41 82.5309 246.551C83.6282 246.692 86.5219 246.986 88.9612 247.206C95.5314 247.799 105.442 249.547 110.329 250.976C119.647 253.7 127.418 257.757 134.292 263.486C137.252 265.953 141.078 269.064 143.007 270.571C143.908 271.275 145.064 272.247 145.576 272.73C146.747 273.836 151.742 277.614 153.157 278.465C153.742 278.816 154.312 279.252 154.424 279.433C154.654 279.806 156.246 280.655 156.41 280.491C156.469 280.432 155.821 279.896 154.97 279.299C154.119 278.702 153.249 278.062 153.037 277.876C152.825 277.689 151.496 276.639 150.084 275.542C148.672 274.445 146.105 272.35 144.379 270.887C141.472 268.423 140.637 267.743 137.847 265.567C137.284 265.128 135.112 263.38 133.02 261.682C129.157 258.548 127.275 257.355 122.034 254.72C118.714 253.051 116.788 252.228 113.92 251.252C106.792 248.827 95.234 246.834 82.7969 245.886C73.3577 245.166 65.7497 244.09 61.0732 242.811C58.6123 242.139 57.1863 242.173 55.4854 242.946ZM57.2597 248.949C57.2597 249.1 57.4094 249.267 57.5922 249.319C57.7752 249.372 58.7626 249.678 59.7868 249.998C69.1954 252.945 72.4833 253.741 84.526 255.99C93.5669 257.677 101.827 259.537 109.265 261.558C115.548 263.265 123.859 266.864 129.624 270.373C131.576 271.561 142.19 278.479 145.443 280.683C146.327 281.282 151.466 284.204 152.96 284.956C153.759 285.36 154.329 285.524 154.29 285.341C154.23 285.062 152.452 283.977 150.364 282.946C149.998 282.765 149.041 282.182 148.236 281.651C145.625 279.928 141.95 277.573 139.325 275.941C137.913 275.063 136.441 274.105 136.053 273.813C133.491 271.877 127.522 268.292 124.029 266.591C118.56 263.929 117.847 263.624 112.59 261.709C108.965 260.388 97.8048 257.675 91.1763 256.502C90.0058 256.296 88.5693 256.011 87.9841 255.87C86.8887 255.607 82.9823 254.883 78.5407 254.121C77.1508 253.883 74.3377 253.278 72.2894 252.778C70.2411 252.278 68.3782 251.868 68.1497 251.868C67.9212 251.867 67.2386 251.628 66.6329 251.335C66.0272 251.042 65.3632 250.803 65.1573 250.803C64.9514 250.803 63.4195 250.324 61.7529 249.74C58.7445 248.684 57.2597 248.423 57.2597 248.949ZM54.8512 250.237C54.2008 250.657 53.4041 251.256 53.0811 251.567C52.7579 251.878 52.302 252.133 52.0679 252.133C51.8335 252.133 51.716 252.253 51.8064 252.399C52.0974 252.87 53.0123 252.683 53.6193 252.028C53.9438 251.678 54.7081 251.131 55.3175 250.814C55.9269 250.496 56.568 250.064 56.742 249.855C57.3105 249.17 56.1355 249.407 54.8512 250.237ZM57.2597 251.022C57.2597 251.35 58.8382 251.958 64.708 253.896C70.5223 255.815 76.0654 257.21 94.2354 261.324C107.723 264.378 113.748 266.289 124.142 270.811C126.378 271.783 130.893 274.294 133.605 276.072C134.703 276.792 136.079 277.665 136.664 278.012C137.25 278.36 139.464 279.705 141.586 281.002C146.379 283.932 152.924 287.257 153.817 287.216C154.368 287.19 154.393 287.162 153.955 287.054C153.663 286.982 153.27 286.799 153.083 286.647C152.896 286.495 151.619 285.798 150.245 285.098C146.854 283.372 139.035 278.891 136.265 277.086C127.767 271.549 125.105 270.196 114.851 266.2C112.234 265.179 102.247 262.293 97.5606 261.202C93.3698 260.227 78.4513 256.864 77.2896 256.633C75.7356 256.323 71.1785 255.113 69.8953 254.669C69.31 254.466 67.5145 253.876 65.9051 253.358C64.2957 252.839 62.141 252.099 61.1169 251.713C59.0092 250.918 57.2597 250.605 57.2597 251.022ZM55.309 252.044C54.9228 252.43 55.1712 252.665 55.9669 252.665C56.4263 252.665 56.9349 252.84 57.0974 253.053C57.4403 253.504 61.717 255.201 68.2367 257.475C72.8845 259.095 74.078 259.435 84.526 262.109C87.7447 262.933 92.7125 264.204 95.5655 264.934C104.958 267.339 114.167 270.179 119.773 272.4C123.477 273.867 130.656 277.496 135.409 280.303C141.142 283.688 150.055 288.239 153.01 289.288C154.06 289.661 154.409 289.692 154.667 289.435C154.924 289.177 154.864 289.109 154.382 289.109C154.046 289.109 153.454 288.934 153.065 288.722C152.677 288.509 151.521 287.978 150.497 287.542C149.473 287.106 147.797 286.307 146.773 285.766C145.749 285.225 143.46 284.03 141.686 283.112C139.912 282.193 136.057 280.058 133.118 278.368C126.791 274.728 125.169 273.895 120.955 272.124C113.011 268.785 102.095 265.526 85.191 261.447C78.3545 259.798 72.6626 258.218 69.8953 257.203C68.2859 256.613 66.8782 256.128 66.7667 256.126C66.6555 256.125 66.057 255.902 65.4366 255.631C64.8166 255.36 63.6187 254.886 62.7752 254.577C61.9317 254.268 60.6128 253.771 59.844 253.473C59.0755 253.175 58.266 252.931 58.0452 252.931C57.8244 252.931 57.439 252.692 57.1884 252.399C56.7479 251.884 55.6718 251.681 55.309 252.044ZM53.9795 253.042C53.7539 253.631 54.6176 254.422 55.9964 254.89C56.6877 255.124 57.4642 255.434 57.722 255.578C58.2577 255.877 66.2307 259.215 68.4322 260.062C73.2712 261.925 77.3689 263.239 84.792 265.311C86.694 265.842 89.5669 266.679 91.1763 267.171C92.7856 267.663 96.1973 268.616 98.7576 269.288C101.318 269.96 104.131 270.735 105.009 271.01C119.582 275.57 125.562 278.062 139.337 285.316C144.788 288.187 148.775 290.003 151.974 291.074C153.93 291.729 154.872 291.75 155.629 291.157C155.818 291.009 156.536 290.625 157.225 290.304C157.914 289.983 159.021 289.373 159.685 288.949C161.157 288.009 164.197 285.36 164.197 285.018C164.197 284.882 163.978 284.968 163.71 285.21C163.443 285.452 163.094 285.65 162.936 285.65C162.778 285.65 162.368 285.981 162.026 286.386C161.213 287.347 160.326 287.957 157.346 289.607C154.97 290.924 153.288 291.347 152.904 290.725C152.82 290.59 152.39 290.4 151.948 290.303C151.199 290.138 142.83 286.525 141.776 285.911C140.094 284.931 125.881 277.796 124.029 277.002C122.785 276.469 121.409 275.876 120.97 275.685C118.809 274.743 114.946 273.337 110.861 272.005C104.876 270.054 103.854 269.758 96.3635 267.798C94.681 267.358 91.5686 266.483 89.4472 265.854C87.3257 265.225 84.4528 264.394 83.0629 264.007C78.0653 262.617 68.9876 259.53 66.227 258.282C63.0752 256.858 58.4237 255.059 57.8914 255.059C57.6089 255.059 57.1729 254.82 56.9224 254.527C56.5037 254.038 56.0086 253.875 55.2284 253.968C55.0622 253.988 54.8563 253.823 54.7711 253.601C54.686 253.379 54.7392 253.197 54.8895 253.197C55.0401 253.197 55.089 253.077 54.9986 252.931C54.757 252.54 54.1468 252.607 53.9795 253.042ZM46.8852 253.76C46.8852 253.907 46.7655 253.952 46.6192 253.862C46.4729 253.772 46.3532 253.578 46.3532 253.432C46.3532 253.285 46.4729 253.24 46.6192 253.33C46.7655 253.42 46.8852 253.614 46.8852 253.76ZM49.914 256.669C51.987 258.847 52.7611 260.077 51.8729 259.781C51.6902 259.72 51.5404 259.545 51.5404 259.391C51.5404 259.238 50.7644 258.29 49.8164 257.285C47.5976 254.934 47.0528 254.261 47.3677 254.261C47.5079 254.261 48.6539 255.345 49.914 256.669ZM56.0674 256.381C55.9796 256.523 56.2419 256.719 56.6502 256.815C57.0586 256.912 57.6321 257.198 57.9247 257.451C58.6225 258.054 67.2631 262.156 70.8263 263.577C75.0671 265.266 76.9356 265.92 81.8658 267.44C110.101 276.139 112.631 276.946 117.512 278.802C119.413 279.525 122.167 280.569 123.63 281.121C126.269 282.118 131.196 284.317 135.944 286.62C139.711 288.446 143.426 290.056 147.97 291.83C153.366 293.938 154.496 294.003 157.844 292.401C159.105 291.797 160.901 290.787 161.834 290.154C163.872 288.774 166.325 286.511 166.325 286.011C166.325 285.48 166.066 285.569 165.492 286.299C164.331 287.775 160.877 290.21 157.897 291.654C155.274 292.924 154.624 293.138 153.709 293.031C152.601 292.902 148.443 291.414 144.911 289.883C144.326 289.629 142.897 289.045 141.736 288.583C140.576 288.122 138.262 287.094 136.594 286.299C134.927 285.503 133.512 284.852 133.451 284.852C133.39 284.852 131.873 284.154 130.081 283.299C124.614 280.694 124.755 280.754 118.443 278.355C114.146 276.722 100.31 272.15 96.3635 271.06C87.3326 268.566 70.4613 262.795 66.4371 260.824C65.9982 260.608 64.9208 260.103 64.043 259.701C59.4506 257.598 57.5592 256.659 57.4023 256.405C57.1841 256.052 56.2808 256.036 56.0674 256.381ZM52.8566 262.719C53.3613 263.394 53.349 263.392 52.3911 262.627C51.85 262.196 51.4074 261.752 51.4074 261.641C51.4074 261.31 52.2996 261.974 52.8566 262.719ZM55.7168 264.483C56.3736 264.984 57.9768 266.041 59.2798 266.831C60.5827 267.621 62.7262 268.99 64.043 269.874C69.5141 273.542 78.704 278.313 85.989 281.267C86.7937 281.593 88.5294 282.303 89.8462 282.846C98.4937 286.408 112.09 291.043 132.142 297.263C137.497 298.925 140.761 299.742 147.438 301.094C152.419 302.103 153.144 302.187 155.817 302.066C157.806 301.977 159.809 301.673 162.069 301.117C167.975 299.666 170.119 299.259 173.507 298.949C175.336 298.782 177.541 298.462 178.408 298.239C179.275 298.016 180.651 297.73 181.467 297.604C182.283 297.477 183.769 297.249 184.768 297.096C187.432 296.69 187.558 297.111 184.934 297.649C182.471 298.154 179.819 298.97 178.162 299.734C176.317 300.584 174.182 301.345 173.635 301.347C173.345 301.348 172.769 301.525 172.356 301.741C171.942 301.957 170.745 302.25 169.695 302.393C168.646 302.535 166.531 302.826 164.995 303.038C159.676 303.773 155.668 304.015 153.29 303.746C150.293 303.406 145.128 302.563 142.65 302.008C141.552 301.762 140.116 301.463 139.458 301.344C136.52 300.811 127.063 298.284 119.906 296.12C117.272 295.323 114.1 294.372 112.856 294.005C111.613 293.639 109.967 293.105 109.199 292.819C108.43 292.534 107.114 292.048 106.272 291.739C95.1478 287.65 80.6222 281.21 74.6835 277.733C73.9932 277.329 69.9216 274.856 68.6679 274.079C68.4317 273.933 67.7733 273.556 67.2048 273.242C66.6364 272.929 65.393 272.092 64.442 271.384C63.491 270.675 62.5121 269.974 62.2668 269.826C61.2844 269.233 57.6084 266.637 56.8343 265.99C56.3808 265.611 55.5463 264.911 54.9794 264.436C53.6095 263.287 54.1992 263.324 55.7168 264.483ZM54.3335 265.233C54.3335 265.381 54.1572 265.352 53.9345 265.168C53.7151 264.985 53.5355 264.717 53.5355 264.57C53.5355 264.422 53.7119 264.451 53.9345 264.635C54.154 264.818 54.3335 265.086 54.3335 265.233ZM56.9937 267.593C58.4057 268.314 61.1796 270.1 63.7671 271.954C67.2524 274.451 74.6758 278.851 80.0037 281.577C87.5691 285.449 105.389 292.508 115.064 295.466C133.46 301.09 148.826 304.363 156.748 304.342C159.848 304.335 167.695 303.757 170.581 303.324C172.299 303.065 179.596 302.823 179.791 303.018C179.874 303.102 179.423 303.312 178.787 303.485C178.151 303.658 177.481 303.842 177.298 303.894C177.115 303.946 176.965 304.112 176.965 304.263C176.965 304.668 181.056 304.603 185.605 304.126C189.882 303.676 191.313 303.735 188.138 304.23C184.176 304.847 180.062 305.591 179.254 305.837C178.8 305.975 177.65 306.161 176.699 306.25C175.748 306.34 174.072 306.581 172.975 306.788C167.598 307.798 159.813 308.394 155.285 308.142C149.617 307.826 137.565 306.406 131.256 305.311C122.849 303.851 112.019 300.828 104.211 297.762C103.333 297.418 101.537 296.715 100.221 296.2C96.4856 294.741 92.6447 292.984 87.5851 290.421C82.0794 287.631 78.4156 285.475 72.3221 281.441C69.8527 279.806 67.7797 278.468 67.7148 278.468C67.1064 278.468 55.754 268.979 56.031 268.701C56.0892 268.643 58.0955 270.078 60.4891 271.89C64.4332 274.876 66.0631 276 72.0234 279.845C74.6303 281.527 80.4924 284.878 82.3979 285.775C94.2772 291.371 96.3813 292.29 103.413 294.958C110.354 297.591 121.494 301 127.354 302.283C137.203 304.441 141.979 305.265 149.699 306.142C154.125 306.645 155.852 306.704 163.59 306.619C170.382 306.544 172.507 306.441 172.768 306.175C173.047 305.892 171.264 305.845 162.867 305.915C154.095 305.988 152.11 305.93 149.034 305.513C142.999 304.695 138.612 304.015 136.797 303.618C135.846 303.409 133.213 302.865 130.945 302.407C127.372 301.687 121.596 300.213 119.507 299.489C119.141 299.362 116.866 298.642 114.452 297.89C109.517 296.35 104.539 294.654 102.748 293.9C102.089 293.623 100.773 293.098 99.8217 292.733C96.5851 291.489 87.3853 287.305 83.8221 285.455C79.5707 283.249 76.5605 281.517 71.2253 278.211C66.9859 275.584 66.709 275.392 61.463 271.458C59.6049 270.065 57.8093 268.78 57.4728 268.604C56.4252 268.054 54.8704 266.738 54.5605 266.139C54.3046 265.644 54.3679 265.662 55.0305 266.274C55.4519 266.664 56.3353 267.257 56.9937 267.593ZM160.207 282.632C160.207 282.759 160.435 283.005 160.715 283.18C161.124 283.435 161.252 283.422 161.372 283.111C161.453 282.898 161.414 282.724 161.284 282.724C161.154 282.724 160.859 282.652 160.627 282.563C160.396 282.474 160.207 282.505 160.207 282.632ZM155.352 283.964C155.535 284.038 155.834 284.038 156.017 283.964C156.2 283.891 156.05 283.83 155.684 283.83C155.319 283.83 155.169 283.891 155.352 283.964ZM154.953 285.938C155.269 286.122 155.568 286.122 155.884 285.938C156.264 285.717 156.178 285.667 155.418 285.667C154.659 285.667 154.573 285.717 154.953 285.938ZM158.61 286.582C158.153 286.843 158.081 286.965 158.378 286.971C158.617 286.976 158.96 286.801 159.142 286.582C159.548 286.093 159.464 286.093 158.61 286.582ZM156.623 287.529C155.562 288.058 154.878 288.577 155.241 288.577C155.7 288.577 157.177 287.825 157.512 287.421C157.966 286.874 157.925 286.879 156.623 287.529ZM173.507 293.631C173.507 293.777 173.68 293.897 173.89 293.897C174.101 293.897 174.348 293.777 174.438 293.631C174.529 293.485 174.356 293.365 174.055 293.365C173.754 293.365 173.507 293.485 173.507 293.631ZM169.783 296.779C169.417 296.828 168.998 296.984 168.852 297.125C168.578 297.389 170.076 297.236 171.911 296.811C172.817 296.601 172.81 296.596 171.645 296.643C170.987 296.669 170.149 296.73 169.783 296.779ZM184.281 300.196C183.549 300.415 182.292 300.689 181.488 300.805C180.683 300.921 179.306 301.232 178.428 301.496C176.794 301.988 174.837 302.173 174.837 301.836C174.837 301.568 175.308 301.443 179.631 300.57C181.749 300.141 183.961 299.792 184.547 299.794L185.611 299.797L184.281 300.196ZM174.377 305.52C174.636 305.587 174.995 305.583 175.175 305.51C175.355 305.437 175.143 305.382 174.704 305.387C174.265 305.393 174.118 305.452 174.377 305.52Z" fill="url(#paint0_angular_8_101)"/>
<defs>
<radialGradient id="paint0_angular_8_101" cx="0" cy="0" r="1" gradientUnits="userSpaceOnUse" gradientTransform="translate(153.539 154.739) rotate(85.8224) scale(126.476 113.336)">
<stop stop-color="#F78500"/>
<stop offset="0.0732076" stop-color="#FFFCF3" stop-opacity="0.58"/>
<stop offset="0.134099" stop-color="#F78500"/>
<stop offset="0.265687" stop-color="#FFFCF3" stop-opacity="0.58"/>
<stop offset="0.355626" stop-color="#FFFCF3" stop-opacity="0.58"/>
<stop offset="0.421922" stop-color="#F7B100"/>
<stop offset="0.49564" stop-color="#FFFCF3" stop-opacity="0.58"/>
<stop offset="0.634893" stop-color="#F7B100"/>
<stop offset="0.725542" stop-color="#FFFCF3" stop-opacity="0.58"/>
<stop offset="0.791917" stop-color="#F7B100"/>
<stop offset="0.834234" stop-color="#F7B100"/>
<stop offset="0.880732" stop-color="#FFFCF3" stop-opacity="0.58"/>
</radialGradient>
</defs>
</svg>
